<svg width="16" height="14" viewBox="0 0 16 14" fill="none" xmlns="http://www.w3.org/2000/svg">
<path d="M0.571777 11.134C0.0934847 11.4101 -0.0703904 12.0217 0.205752 12.5C0.481894 12.9783 1.09348 13.1422 1.57178 12.866L0.571777 11.134ZM15.8941 4.25882C16.0371 3.72535 15.7205 3.17702 15.187 3.03407L6.49367 0.704703C5.9602 0.561761 5.41187 0.878344 5.26893 1.41181C5.12598 1.94528 5.44257 2.49361 5.97603 2.63655L13.7034 4.70711L11.6329 12.4345C11.4899 12.968 11.8065 13.5163 12.34 13.6593C12.8735 13.8022 13.4218 13.4856 13.5647 12.9522L15.8941 4.25882ZM1.57178 12.866L15.4282 4.86603L14.4282 3.13397L0.571777 11.134L1.57178 12.866Z" fill="white"/>
</svg>