<svg width="45" height="141" viewBox="0 0 45 141" fill="none" xmlns="http://www.w3.org/2000/svg">
<path d="M42.9718 140.536C43.8002 140.537 44.4725 139.866 44.4733 139.038L44.4868 125.538C44.4877 124.71 43.8168 124.037 42.9883 124.036C42.1599 124.036 41.4877 124.707 41.4868 125.535L41.4748 137.535L29.4748 137.523C28.6464 137.522 27.9741 138.193 27.9733 139.021C27.9725 139.85 28.6434 140.522 29.4718 140.523L42.9718 140.536ZM41.015 0.941365C13.5251 28.5363 0.346884 50.1899 0.966329 71.7295C1.58485 93.2369 15.9543 114.087 41.9116 140.096L44.035 137.977C18.084 111.974 4.54675 91.8691 3.96509 71.6433C3.38436 51.4497 15.7124 30.5914 43.1403 3.05863L41.015 0.941365Z" fill="white"/>
</svg>
