<svg width="438" height="69" viewBox="0 0 438 69" fill="none" xmlns="http://www.w3.org/2000/svg">
<line y1="33" x2="438" y2="33" stroke="black" stroke-width="2"/>
<rect x="184" width="69" height="69" rx="5" fill="black"/>
<path d="M216.119 42.9531C216.119 45.0365 215.273 46.8594 213.58 48.4219C211.92 49.9844 209.951 50.7656 207.672 50.7656C204.091 50.7656 201.34 49.5775 199.42 47.2012C197.499 44.8249 196.539 41.5371 196.539 37.3379C196.539 33.4316 198.183 29.4928 201.471 25.5215C204.791 21.5501 208.779 18.5391 213.434 16.4883L215.582 19.9551C211.904 21.7454 209.023 23.8288 206.939 26.2051C204.856 28.5814 203.652 31.4622 203.326 34.8477H206.061C208.079 34.8477 209.723 35.0755 210.992 35.5312C212.262 35.987 213.287 36.6217 214.068 37.4355C214.817 38.2168 215.338 39.0794 215.631 40.0234C215.956 40.9674 216.119 41.944 216.119 42.9531ZM240.191 42.9531C240.191 45.0365 239.345 46.8594 237.652 48.4219C235.992 49.9844 234.023 50.7656 231.744 50.7656C228.163 50.7656 225.413 49.5775 223.492 47.2012C221.572 44.8249 220.611 41.5371 220.611 37.3379C220.611 33.4316 222.255 29.4928 225.543 25.5215C228.863 21.5501 232.851 18.5391 237.506 16.4883L239.654 19.9551C235.976 21.7454 233.095 23.8288 231.012 26.2051C228.928 28.5814 227.724 31.4622 227.398 34.8477H230.133C232.151 34.8477 233.795 35.0755 235.064 35.5312C236.334 35.987 237.359 36.6217 238.141 37.4355C238.889 38.2168 239.41 39.0794 239.703 40.0234C240.029 40.9674 240.191 41.944 240.191 42.9531Z" fill="white"/>
</svg>
