<svg width="23" height="23" viewBox="0 0 27 27" fill="none" xmlns="http://www.w3.org/2000/svg">
<circle cx="13.5" cy="13.5" r="12.5" stroke="black" stroke-width="2"/>
<path d="M14.1364 19.1591C13.3864 19.1591 12.7178 19.0303 12.1307 18.7727C11.5473 18.5152 11.0833 18.1572 10.7386 17.6989C10.3977 17.2367 10.2121 16.7008 10.1818 16.0909H11.6136C11.6439 16.4659 11.7727 16.7898 12 17.0625C12.2273 17.3314 12.5246 17.5398 12.892 17.6875C13.2595 17.8352 13.6667 17.9091 14.1136 17.9091C14.6136 17.9091 15.0568 17.822 15.4432 17.6477C15.8295 17.4735 16.1326 17.2311 16.3523 16.9205C16.572 16.6098 16.6818 16.25 16.6818 15.8409C16.6818 15.4129 16.5758 15.036 16.3636 14.7102C16.1515 14.3807 15.8409 14.1231 15.4318 13.9375C15.0227 13.7519 14.5227 13.6591 13.9318 13.6591H13V12.4091H13.9318C14.3939 12.4091 14.7992 12.3258 15.1477 12.1591C15.5 11.9924 15.7746 11.7576 15.9716 11.4545C16.1723 11.1515 16.2727 10.7955 16.2727 10.3864C16.2727 9.99242 16.1856 9.64962 16.0114 9.35795C15.8371 9.06629 15.5909 8.83901 15.2727 8.67614C14.9583 8.51326 14.5871 8.43182 14.1591 8.43182C13.7576 8.43182 13.3788 8.50568 13.0227 8.65341C12.6705 8.79735 12.3826 9.00758 12.1591 9.28409C11.9356 9.55682 11.8144 9.88636 11.7955 10.2727H10.4318C10.4545 9.66288 10.6383 9.12879 10.983 8.67045C11.3277 8.20833 11.7784 7.84848 12.3352 7.59091C12.8958 7.33333 13.5114 7.20455 14.1818 7.20455C14.9015 7.20455 15.5189 7.35038 16.0341 7.64205C16.5492 7.92992 16.9451 8.31061 17.2216 8.78409C17.4981 9.25758 17.6364 9.76894 17.6364 10.3182C17.6364 10.9735 17.464 11.5322 17.1193 11.9943C16.7784 12.4564 16.3144 12.7765 15.7273 12.9545V13.0455C16.4621 13.1667 17.036 13.4792 17.4489 13.983C17.8617 14.483 18.0682 15.1023 18.0682 15.8409C18.0682 16.4735 17.8958 17.0417 17.5511 17.5455C17.2102 18.0455 16.7443 18.4394 16.1534 18.7273C15.5625 19.0152 14.8902 19.1591 14.1364 19.1591Z" fill="black"/>
</svg>
