<svg width="23" height="23" viewBox="0 0 27 27" fill="none" xmlns="http://www.w3.org/2000/svg">
<circle cx="13.5" cy="13.5" r="12.5" stroke="black" stroke-width="2"/>
<path d="M10.2045 20V18.9773L14.0455 14.7727C14.4962 14.2803 14.8674 13.8523 15.1591 13.4886C15.4508 13.1212 15.6667 12.7765 15.8068 12.4545C15.9508 12.1288 16.0227 11.7879 16.0227 11.4318C16.0227 11.0227 15.9242 10.6686 15.7273 10.3693C15.5341 10.0701 15.2689 9.83901 14.9318 9.67614C14.5947 9.51326 14.2159 9.43182 13.7955 9.43182C13.3485 9.43182 12.9583 9.52462 12.625 9.71023C12.2955 9.89205 12.0398 10.1477 11.858 10.4773C11.6799 10.8068 11.5909 11.1932 11.5909 11.6364H10.25C10.25 10.9545 10.4072 10.3561 10.7216 9.84091C11.036 9.32576 11.464 8.92424 12.0057 8.63636C12.5511 8.34848 13.1629 8.20455 13.8409 8.20455C14.5227 8.20455 15.1269 8.34848 15.6534 8.63636C16.1799 8.92424 16.5928 9.3125 16.892 9.80114C17.1913 10.2898 17.3409 10.8333 17.3409 11.4318C17.3409 11.8598 17.2633 12.2784 17.108 12.6875C16.9564 13.0928 16.6913 13.5455 16.3125 14.0455C15.9375 14.5417 15.4167 15.1477 14.75 15.8636L12.1364 18.6591V18.75H17.5455V20H10.2045Z" fill="black"/>
</svg>
